# File created by Blade
# Date/Time:  Wed Apr 08 17:35:25 2015
# Frame Rate: 120.000 fps
#------------------------------------------------------
:FULLY-SPECIFIED
:DEGREES
2158
root 10.472470 38.410019 5.336221 174.230511 -45.513166 -131.042688
Spine -13.032200 2.156337 7.824025
Head 25.905562 -15.374512 26.058126
LeftShoulder -6.820029 17.948167 19.280775
LeftArm 22.378811 23.529668 -72.769337
LeftForeArm 18.090653 -0.000000 29.854335
LeftHand -14.926656 -0.000000 -7.260750
LeftHandThumb1 -26.253704 0.000000 33.147579
RightShoulder -38.976297 -47.162758 22.603534
RightArm 46.508708 -5.121070 63.883378
RightForeArm 10.584604 0.000000 9.723305
RightHand 2.909663 -0.000000 4.276736
RightHandThumb1 -24.326973 -0.000000 -32.862282
LeftUpLeg -51.666337 38.737927 -3.179280
LeftLeg 13.074156 -0.000000 -0.000000
LeftFoot -8.164986 21.600620 -2.431425
LeftToeBase 5.608054 -0.000000 -0.000000
RightUpLeg -80.154362 -20.065381 11.905672
RightLeg 128.718271 -0.000000 -0.000000
RightFoot 2.650796 19.622174 31.063775
RightToeBase 5.756478 -0.000000 -0.000000
2159
root 10.479365 38.405524 5.349225 174.184473 -45.476917 -131.031214
Spine -13.060549 2.194667 7.898570
Head 26.019680 -15.268495 25.936897
LeftShoulder -6.805018 17.968789 19.274561
LeftArm 22.368712 23.513352 -72.877884
LeftForeArm 17.940731 -0.000000 29.747253
LeftHand -14.943516 -0.000000 -7.176060
LeftHandThumb1 -26.253704 0.000000 33.147579
RightShoulder -38.933925 -47.188516 22.511711
RightArm 46.511253 -5.264631 63.781251
RightForeArm 9.794782 0.000000 9.811271
RightHand 2.736022 -0.000000 3.900853
RightHandThumb1 -24.326973 -0.000000 -32.862282
LeftUpLeg -51.743978 38.772226 -3.182760
LeftLeg 13.235731 -0.000000 -0.000000
LeftFoot -8.286716 21.636401 -2.529627
LeftToeBase 5.686918 -0.000000 -0.000000
RightUpLeg -80.518862 -20.299762 11.859970
RightLeg 128.638206 -0.000000 -0.000000
RightFoot 2.970709 19.028331 30.556572
RightToeBase 6.090828 -0.000000 -0.000000
2160
root 10.484324 38.402067 5.361474 174.134849 -45.438594 -131.013556
Spine -13.089513 2.232077 7.980509
Head 26.144207 -15.151741 25.835171
LeftShoulder -6.798856 17.991728 19.251134
LeftArm 22.344528 23.499925 -72.971214
LeftForeArm 17.791605 -0.000000 29.664440
LeftHand -15.075870 -0.000000 -7.085305
LeftHandThumb1 -26.253704 0.000000 33.147579
RightShoulder -38.889891 -47.177828 22.427207
RightArm 46.507091 -5.412263 63.650857
RightForeArm 8.925597 -0.000000 9.880431
RightHand 2.516963 0.000000 3.285668
RightHandThumb1 -24.326973 -0.000000 -32.862282
LeftUpLeg -51.848517 38.875381 -3.256108
LeftLeg 13.365998 -0.000000 -0.000000
LeftFoot -8.438008 21.574693 -2.683012
LeftToeBase 5.761316 -0.000000 -0.000000
RightUpLeg -80.849770 -20.543487 11.739841
RightLeg 128.538725 -0.000000 -0.000000
RightFoot 3.537820 18.273914 29.967444
RightToeBase 6.440895 -0.000000 -0.000000
2161
root 10.490533 38.398851 5.373851 174.107074 -45.426904 -130.985842
Spine -13.160911 2.239847 8.057063
Head 26.244940 -15.000375 25.767903
LeftShoulder -6.788123 17.997765 19.257978
LeftArm 22.280631 23.478450 -73.116133
LeftForeArm 17.700496 0.000000 29.538569
LeftHand -15.004748 -0.000000 -7.085400
LeftHandThumb1 -26.253704 0.000000 33.147579
RightShoulder -38.900175 -47.188957 22.397778
RightArm 46.592699 -5.625869 63.426015
RightForeArm 8.281967 -0.000000 9.857742
RightHand 2.431161 0.000000 2.653987
RightHandThumb1 -24.326973 -0.000000 -32.862282
LeftUpLeg -52.008006 39.000380 -3.394886
LeftLeg 13.480469 -0.000000 -0.000000
LeftFoot -8.629845 21.352843 -3.052336
LeftToeBase 5.723169 -0.000000 -0.000000
RightUpLeg -81.183082 -20.811871 11.537633
RightLeg 128.432354 -0.000000 -0.000000
RightFoot 4.413499 17.457381 29.637062
RightToeBase 6.753153 -0.000000 -0.000000
